{
	"asset":{
		"generator":"Khronos glTF Blender I/O v4.2.70",
		"version":"2.0"
	},
	"extensionsUsed":[
		"KHR_materials_specular",
		"KHR_materials_ior"
	],
	"scene":0,
	"scenes":[
		{
			"name":"Scene",
			"nodes":[
				5
			]
		}
	],
	"nodes":[
		{
			"mesh":0,
			"name":"Mesh_0"
		},
		{
			"mesh":1,
			"name":"Mesh_1"
		},
		{
			"mesh":2,
			"name":"Mesh_2"
		},
		{
			"children":[
				0,
				1,
				2
			],
			"name":"FRONT_LEFT1.2",
			"scale":[
				0.699999988079071,
				0.699999988079071,
				0.699999988079071
			],
			"translation":[
				0.7699999213218689,
				5.395412244979525e-06,
				-0.803225576877594
			]
		},
		{
			"children":[
				3
			],
			"name":"wheels1.1"
		},
		{
			"children":[
				4
			],
			"name":"RootNode.0",
			"scale":[
				0.009999999776482582,
				0.009999999776482582,
				0.009999999776482582
			]
		}
	],
	"materials":[
		{
			"doubleSided":true,
			"extensions":{
				"KHR_materials_specular":{
					"specularColorTexture":{
						"index":0
					}
				},
				"KHR_materials_ior":{
					"ior":1000
				}
			},
			"name":"Material_0",
			"pbrMetallicRoughness":{
				"baseColorTexture":{
					"index":1
				},
				"metallicFactor":0,
				"metallicRoughnessTexture":{
					"index":2
				}
			}
		},
		{
			"doubleSided":true,
			"extensions":{
				"KHR_materials_specular":{
					"specularColorTexture":{
						"index":3
					}
				},
				"KHR_materials_ior":{
					"ior":1000
				}
			},
			"name":"Material_1",
			"pbrMetallicRoughness":{
				"baseColorTexture":{
					"index":4
				},
				"metallicFactor":0,
				"metallicRoughnessTexture":{
					"index":5
				}
			}
		},
		{
			"doubleSided":true,
			"extensions":{
				"KHR_materials_specular":{
					"specularColorTexture":{
						"index":6
					}
				},
				"KHR_materials_ior":{
					"ior":1000
				}
			},
			"name":"Material_2",
			"pbrMetallicRoughness":{
				"baseColorTexture":{
					"index":7
				},
				"metallicFactor":0,
				"metallicRoughnessTexture":{
					"index":8
				}
			}
		}
	],
	"meshes":[
		{
			"name":"Mesh_0",
			"primitives":[
				{
					"attributes":{
						"POSITION":0,
						"NORMAL":1,
						"TEXCOORD_0":2
					},
					"indices":3,
					"material":0
				}
			]
		},
		{
			"name":"Mesh_1",
			"primitives":[
				{
					"attributes":{
						"POSITION":4,
						"NORMAL":5,
						"TEXCOORD_0":6
					},
					"indices":7,
					"material":1
				}
			]
		},
		{
			"name":"Mesh_2",
			"primitives":[
				{
					"attributes":{
						"POSITION":8,
						"NORMAL":9,
						"TEXCOORD_0":10
					},
					"indices":11,
					"material":2
				}
			]
		}
	],
	"textures":[
		{
			"sampler":0,
			"source":0
		},
		{
			"sampler":0,
			"source":1
		},
		{
			"sampler":0,
			"source":2
		},
		{
			"sampler":0,
			"source":3
		},
		{
			"sampler":0,
			"source":4
		},
		{
			"sampler":0,
			"source":5
		},
		{
			"sampler":0,
			"source":6
		},
		{
			"sampler":0,
			"source":7
		},
		{
			"sampler":0,
			"source":8
		}
	],
	"images":[
		{
			"mimeType":"image/png",
			"name":"Image_1",
			"uri":"Image_1.png"
		},
		{
			"mimeType":"image/png",
			"name":"Image_0",
			"uri":"Image_0.png"
		},
		{
			"mimeType":"image/png",
			"name":"Image_1",
			"uri":"Image_1-1.png"
		},
		{
			"mimeType":"image/png",
			"name":"Image_3",
			"uri":"Image_3.png"
		},
		{
			"mimeType":"image/png",
			"name":"Image_2",
			"uri":"Image_2.png"
		},
		{
			"mimeType":"image/png",
			"name":"Image_3",
			"uri":"Image_3-1.png"
		},
		{
			"mimeType":"image/png",
			"name":"Image_5",
			"uri":"Image_5.png"
		},
		{
			"mimeType":"image/png",
			"name":"Image_4",
			"uri":"Image_4.png"
		},
		{
			"mimeType":"image/png",
			"name":"Image_5",
			"uri":"Image_5-1.png"
		}
	],
	"accessors":[
		{
			"bufferView":0,
			"componentType":5126,
			"count":366,
			"max":[
				0.2284795045852661,
				0.4147322177886963,
				0.4189969599246979
			],
			"min":[
				-0.14548714458942413,
				-0.41473260521888733,
				-0.4189969599246979
			],
			"type":"VEC3"
		},
		{
			"bufferView":1,
			"componentType":5126,
			"count":366,
			"type":"VEC3"
		},
		{
			"bufferView":2,
			"componentType":5126,
			"count":366,
			"type":"VEC2"
		},
		{
			"bufferView":3,
			"componentType":5123,
			"count":366,
			"type":"SCALAR"
		},
		{
			"bufferView":4,
			"componentType":5126,
			"count":1811,
			"max":[
				0.1915491223335266,
				0.27876532077789307,
				0.27877676486968994
			],
			"min":[
				-0.10280176252126694,
				-0.2796366214752197,
				-0.27962231636047363
			],
			"type":"VEC3"
		},
		{
			"bufferView":5,
			"componentType":5126,
			"count":1811,
			"type":"VEC3"
		},
		{
			"bufferView":6,
			"componentType":5126,
			"count":1811,
			"type":"VEC2"
		},
		{
			"bufferView":7,
			"componentType":5123,
			"count":2337,
			"type":"SCALAR"
		},
		{
			"bufferView":8,
			"componentType":5126,
			"count":1604,
			"max":[
				0.2230605185031891,
				0.5045720338821411,
				0.5056740045547485
			],
			"min":[
				-0.14817598462104797,
				-0.5021636486053467,
				-0.5039539337158203
			],
			"type":"VEC3"
		},
		{
			"bufferView":9,
			"componentType":5126,
			"count":1604,
			"type":"VEC3"
		},
		{
			"bufferView":10,
			"componentType":5126,
			"count":1604,
			"type":"VEC2"
		},
		{
			"bufferView":11,
			"componentType":5123,
			"count":1716,
			"type":"SCALAR"
		}
	],
	"bufferViews":[
		{
			"buffer":0,
			"byteLength":4392,
			"byteOffset":0,
			"target":34962
		},
		{
			"buffer":0,
			"byteLength":4392,
			"byteOffset":4392,
			"target":34962
		},
		{
			"buffer":0,
			"byteLength":2928,
			"byteOffset":8784,
			"target":34962
		},
		{
			"buffer":0,
			"byteLength":732,
			"byteOffset":11712,
			"target":34963
		},
		{
			"buffer":0,
			"byteLength":21732,
			"byteOffset":12444,
			"target":34962
		},
		{
			"buffer":0,
			"byteLength":21732,
			"byteOffset":34176,
			"target":34962
		},
		{
			"buffer":0,
			"byteLength":14488,
			"byteOffset":55908,
			"target":34962
		},
		{
			"buffer":0,
			"byteLength":4674,
			"byteOffset":70396,
			"target":34963
		},
		{
			"buffer":0,
			"byteLength":19248,
			"byteOffset":75072,
			"target":34962
		},
		{
			"buffer":0,
			"byteLength":19248,
			"byteOffset":94320,
			"target":34962
		},
		{
			"buffer":0,
			"byteLength":12832,
			"byteOffset":113568,
			"target":34962
		},
		{
			"buffer":0,
			"byteLength":3432,
			"byteOffset":126400,
			"target":34963
		}
	],
	"samplers":[
		{
			"magFilter":9729,
			"minFilter":9987
		}
	],
	"buffers":[
		{
			"byteLength":129832,
			"uri":"untitledtire.bin"
		}
	]
}
